<mxfile host="app.diagrams.net" agent="Mozilla/5.0 (X11; Linux x86_64; rv:142.0) Gecko/20100101 Firefox/142.0" version="28.2.3">
  <diagram name="Page-1" id="nmz4eMg9GRUSJ9Gxh9a3">
    <mxGraphModel dx="1060" dy="1604" grid="1" gridSize="10" guides="1" tooltips="1" connect="1" arrows="0" fold="1" page="1" pageScale="1" pageWidth="850" pageHeight="1100" math="0" shadow="0">
      <root>
        <mxCell id="0" />
        <mxCell id="1" parent="0" />
        <mxCell id="V5m3Qxr6WHMaZFeodgsR-19" value="" style="edgeStyle=orthogonalEdgeStyle;rounded=0;orthogonalLoop=1;jettySize=auto;html=1;exitX=1;exitY=1;exitDx=0;exitDy=0;" parent="1" source="V5m3Qxr6WHMaZFeodgsR-2" edge="1">
          <mxGeometry relative="1" as="geometry">
            <mxPoint x="250" y="80" as="targetPoint" />
          </mxGeometry>
        </mxCell>
        <mxCell id="V5m3Qxr6WHMaZFeodgsR-2" value="ALU" style="whiteSpace=wrap;html=1;aspect=fixed;rotation=-45;fillColor=none;" parent="1" vertex="1">
          <mxGeometry x="75" y="40" width="80" height="80" as="geometry" />
        </mxCell>
        <mxCell id="5Rc7OVquFbcM6eeQvWW6-1" style="edgeStyle=orthogonalEdgeStyle;rounded=0;orthogonalLoop=1;jettySize=auto;html=1;exitX=0.5;exitY=1;exitDx=0;exitDy=0;startArrow=classic;startFill=1;endArrow=none;endFill=0;" parent="1" source="V5m3Qxr6WHMaZFeodgsR-37" edge="1">
          <mxGeometry relative="1" as="geometry">
            <mxPoint x="70.11111111111109" y="250" as="targetPoint" />
            <mxPoint x="69.99999999999989" y="220" as="sourcePoint" />
          </mxGeometry>
        </mxCell>
        <mxCell id="V5m3Qxr6WHMaZFeodgsR-6" style="edgeStyle=orthogonalEdgeStyle;rounded=0;orthogonalLoop=1;jettySize=auto;html=1;exitX=0.5;exitY=0;exitDx=0;exitDy=0;entryX=0.5;entryY=1;entryDx=0;entryDy=0;" parent="1" source="V5m3Qxr6WHMaZFeodgsR-4" target="V5m3Qxr6WHMaZFeodgsR-2" edge="1">
          <mxGeometry relative="1" as="geometry">
            <mxPoint x="160" y="120" as="targetPoint" />
            <Array as="points">
              <mxPoint x="160" y="160" />
              <mxPoint x="143" y="160" />
            </Array>
          </mxGeometry>
        </mxCell>
        <mxCell id="V5m3Qxr6WHMaZFeodgsR-14" style="edgeStyle=orthogonalEdgeStyle;rounded=0;orthogonalLoop=1;jettySize=auto;html=1;exitX=0.5;exitY=1;exitDx=0;exitDy=0;endArrow=none;endFill=0;startArrow=classic;startFill=1;" parent="1" source="V5m3Qxr6WHMaZFeodgsR-4" edge="1">
          <mxGeometry relative="1" as="geometry">
            <mxPoint x="160" y="250" as="targetPoint" />
            <mxPoint x="150" y="220" as="sourcePoint" />
          </mxGeometry>
        </mxCell>
        <mxCell id="V5m3Qxr6WHMaZFeodgsR-4" value="AUX" style="rounded=0;whiteSpace=wrap;html=1;fillColor=none;" parent="1" vertex="1">
          <mxGeometry x="125" y="190" width="70" height="30" as="geometry" />
        </mxCell>
        <mxCell id="V5m3Qxr6WHMaZFeodgsR-7" value="" style="endArrow=none;html=1;rounded=0;strokeWidth=1;" parent="1" edge="1">
          <mxGeometry width="50" height="50" relative="1" as="geometry">
            <mxPoint x="250" y="530" as="sourcePoint" />
            <mxPoint x="250" y="20" as="targetPoint" />
          </mxGeometry>
        </mxCell>
        <mxCell id="V5m3Qxr6WHMaZFeodgsR-8" value="" style="endArrow=none;html=1;rounded=0;strokeWidth=1;" parent="1" edge="1">
          <mxGeometry width="50" height="50" relative="1" as="geometry">
            <mxPoint x="30" y="250" as="sourcePoint" />
            <mxPoint x="530" y="250" as="targetPoint" />
          </mxGeometry>
        </mxCell>
        <mxCell id="V5m3Qxr6WHMaZFeodgsR-23" style="edgeStyle=orthogonalEdgeStyle;rounded=0;orthogonalLoop=1;jettySize=auto;html=1;exitX=0;exitY=0;exitDx=0;exitDy=25;exitPerimeter=0;" parent="1" source="V5m3Qxr6WHMaZFeodgsR-20" edge="1">
          <mxGeometry relative="1" as="geometry">
            <mxPoint x="250" y="35" as="targetPoint" />
          </mxGeometry>
        </mxCell>
        <mxCell id="V5m3Qxr6WHMaZFeodgsR-24" style="edgeStyle=orthogonalEdgeStyle;rounded=0;orthogonalLoop=1;jettySize=auto;html=1;exitX=0;exitY=0;exitDx=0;exitDy=45;exitPerimeter=0;startArrow=classic;startFill=1;endArrow=none;endFill=0;" parent="1" source="V5m3Qxr6WHMaZFeodgsR-20" edge="1">
          <mxGeometry relative="1" as="geometry">
            <mxPoint x="250" y="55" as="targetPoint" />
          </mxGeometry>
        </mxCell>
        <mxCell id="V5m3Qxr6WHMaZFeodgsR-20" value="RAM" style="shape=cylinder3;whiteSpace=wrap;html=1;boundedLbl=1;backgroundOutline=1;size=15;fillColor=none;" parent="1" vertex="1">
          <mxGeometry x="290" y="10" width="100" height="70" as="geometry" />
        </mxCell>
        <mxCell id="V5m3Qxr6WHMaZFeodgsR-27" value="CLK" style="triangle;whiteSpace=wrap;html=1;align=left;fillColor=none;" parent="1" vertex="1">
          <mxGeometry x="50" y="265" width="40" height="40" as="geometry" />
        </mxCell>
        <mxCell id="V5m3Qxr6WHMaZFeodgsR-29" value="IC" style="rounded=0;whiteSpace=wrap;html=1;fillColor=none;" parent="1" vertex="1">
          <mxGeometry x="120" y="270" width="70" height="30" as="geometry" />
        </mxCell>
        <mxCell id="V5m3Qxr6WHMaZFeodgsR-43" style="edgeStyle=orthogonalEdgeStyle;rounded=0;orthogonalLoop=1;jettySize=auto;html=1;exitX=1;exitY=0.5;exitDx=0;exitDy=0;startArrow=classic;startFill=1;endArrow=none;endFill=0;" parent="1" source="V5m3Qxr6WHMaZFeodgsR-30" edge="1">
          <mxGeometry relative="1" as="geometry">
            <mxPoint x="250" y="435" as="targetPoint" />
          </mxGeometry>
        </mxCell>
        <mxCell id="V5m3Qxr6WHMaZFeodgsR-30" value="INS" style="rounded=0;whiteSpace=wrap;html=1;fillColor=none;" parent="1" vertex="1">
          <mxGeometry x="120" y="420" width="70" height="30" as="geometry" />
        </mxCell>
        <mxCell id="5Rc7OVquFbcM6eeQvWW6-29" style="edgeStyle=orthogonalEdgeStyle;rounded=0;orthogonalLoop=1;jettySize=auto;html=1;exitX=0;exitY=0.5;exitDx=0;exitDy=0;exitPerimeter=0;" parent="1" source="V5m3Qxr6WHMaZFeodgsR-31" edge="1">
          <mxGeometry relative="1" as="geometry">
            <mxPoint x="40" y="360" as="targetPoint" />
          </mxGeometry>
        </mxCell>
        <mxCell id="5Rc7OVquFbcM6eeQvWW6-30" value="&lt;div&gt;Control logic&lt;/div&gt;" style="edgeLabel;html=1;align=center;verticalAlign=middle;resizable=0;points=[];" parent="5Rc7OVquFbcM6eeQvWW6-29" vertex="1" connectable="0">
          <mxGeometry x="0.0489" y="-1" relative="1" as="geometry">
            <mxPoint x="-1" y="-14" as="offset" />
          </mxGeometry>
        </mxCell>
        <mxCell id="V5m3Qxr6WHMaZFeodgsR-31" value="DECODER" style="shape=cylinder3;whiteSpace=wrap;html=1;boundedLbl=1;backgroundOutline=1;size=15;fillColor=none;" parent="1" vertex="1">
          <mxGeometry x="105" y="325" width="100" height="70" as="geometry" />
        </mxCell>
        <mxCell id="V5m3Qxr6WHMaZFeodgsR-33" style="edgeStyle=orthogonalEdgeStyle;rounded=0;orthogonalLoop=1;jettySize=auto;html=1;exitX=0.5;exitY=1;exitDx=0;exitDy=0;entryX=0.5;entryY=0;entryDx=0;entryDy=0;entryPerimeter=0;" parent="1" source="V5m3Qxr6WHMaZFeodgsR-29" target="V5m3Qxr6WHMaZFeodgsR-31" edge="1">
          <mxGeometry relative="1" as="geometry" />
        </mxCell>
        <mxCell id="V5m3Qxr6WHMaZFeodgsR-39" style="edgeStyle=orthogonalEdgeStyle;rounded=0;orthogonalLoop=1;jettySize=auto;html=1;exitX=0.5;exitY=0;exitDx=0;exitDy=0;entryX=0;entryY=0.5;entryDx=0;entryDy=0;" parent="1" source="V5m3Qxr6WHMaZFeodgsR-37" target="V5m3Qxr6WHMaZFeodgsR-2" edge="1">
          <mxGeometry relative="1" as="geometry">
            <mxPoint x="90" y="120" as="targetPoint" />
            <Array as="points">
              <mxPoint x="70" y="160" />
              <mxPoint x="87" y="160" />
            </Array>
          </mxGeometry>
        </mxCell>
        <mxCell id="V5m3Qxr6WHMaZFeodgsR-37" value="DTA1" style="rounded=0;whiteSpace=wrap;html=1;fillColor=none;" parent="1" vertex="1">
          <mxGeometry x="35" y="190" width="70" height="30" as="geometry" />
        </mxCell>
        <mxCell id="V5m3Qxr6WHMaZFeodgsR-42" style="edgeStyle=orthogonalEdgeStyle;rounded=0;orthogonalLoop=1;jettySize=auto;html=1;exitX=0.5;exitY=0;exitDx=0;exitDy=0;entryX=0.5;entryY=1;entryDx=0;entryDy=0;entryPerimeter=0;" parent="1" source="V5m3Qxr6WHMaZFeodgsR-30" target="V5m3Qxr6WHMaZFeodgsR-31" edge="1">
          <mxGeometry relative="1" as="geometry" />
        </mxCell>
        <mxCell id="V5m3Qxr6WHMaZFeodgsR-86" style="edgeStyle=orthogonalEdgeStyle;rounded=0;orthogonalLoop=1;jettySize=auto;html=1;exitX=0;exitY=0.5;exitDx=0;exitDy=0;startArrow=classic;startFill=1;endArrow=none;endFill=0;" parent="1" source="V5m3Qxr6WHMaZFeodgsR-44" edge="1">
          <mxGeometry relative="1" as="geometry">
            <mxPoint x="250" y="115" as="targetPoint" />
          </mxGeometry>
        </mxCell>
        <mxCell id="V5m3Qxr6WHMaZFeodgsR-44" value="&lt;div&gt;ADR1&lt;/div&gt;" style="rounded=0;whiteSpace=wrap;html=1;fillColor=none;" parent="1" vertex="1">
          <mxGeometry x="305" y="100" width="70" height="30" as="geometry" />
        </mxCell>
        <mxCell id="V5m3Qxr6WHMaZFeodgsR-45" style="edgeStyle=orthogonalEdgeStyle;rounded=0;orthogonalLoop=1;jettySize=auto;html=1;exitX=0.5;exitY=0;exitDx=0;exitDy=0;entryX=0.5;entryY=1;entryDx=0;entryDy=0;entryPerimeter=0;" parent="1" source="V5m3Qxr6WHMaZFeodgsR-44" target="V5m3Qxr6WHMaZFeodgsR-20" edge="1">
          <mxGeometry relative="1" as="geometry" />
        </mxCell>
        <mxCell id="V5m3Qxr6WHMaZFeodgsR-74" style="edgeStyle=orthogonalEdgeStyle;rounded=0;orthogonalLoop=1;jettySize=auto;html=1;exitX=0;exitY=0;exitDx=0;exitDy=25;exitPerimeter=0;" parent="1" source="V5m3Qxr6WHMaZFeodgsR-46" edge="1">
          <mxGeometry relative="1" as="geometry">
            <mxPoint x="250" y="485" as="targetPoint" />
          </mxGeometry>
        </mxCell>
        <mxCell id="V5m3Qxr6WHMaZFeodgsR-75" style="edgeStyle=orthogonalEdgeStyle;rounded=0;orthogonalLoop=1;jettySize=auto;html=1;exitX=0;exitY=0;exitDx=0;exitDy=45;exitPerimeter=0;startArrow=classic;startFill=1;endArrow=none;endFill=0;" parent="1" source="V5m3Qxr6WHMaZFeodgsR-46" edge="1">
          <mxGeometry relative="1" as="geometry">
            <mxPoint x="250" y="505" as="targetPoint" />
          </mxGeometry>
        </mxCell>
        <mxCell id="V5m3Qxr6WHMaZFeodgsR-46" value="ROM" style="shape=cylinder3;whiteSpace=wrap;html=1;boundedLbl=1;backgroundOutline=1;size=15;fillColor=none;" parent="1" vertex="1">
          <mxGeometry x="290" y="460" width="100" height="70" as="geometry" />
        </mxCell>
        <mxCell id="5Rc7OVquFbcM6eeQvWW6-2" style="edgeStyle=orthogonalEdgeStyle;rounded=0;orthogonalLoop=1;jettySize=auto;html=1;exitX=1;exitY=0.25;exitDx=0;exitDy=0;" parent="1" source="V5m3Qxr6WHMaZFeodgsR-83" edge="1">
          <mxGeometry relative="1" as="geometry">
            <mxPoint x="250" y="497.5173745173745" as="targetPoint" />
          </mxGeometry>
        </mxCell>
        <mxCell id="5Rc7OVquFbcM6eeQvWW6-4" style="edgeStyle=orthogonalEdgeStyle;rounded=0;orthogonalLoop=1;jettySize=auto;html=1;exitX=1;exitY=0.75;exitDx=0;exitDy=0;startArrow=classic;startFill=1;endArrow=none;endFill=0;" parent="1" source="V5m3Qxr6WHMaZFeodgsR-83" edge="1">
          <mxGeometry relative="1" as="geometry">
            <mxPoint x="250" y="512.4444444444445" as="targetPoint" />
          </mxGeometry>
        </mxCell>
        <mxCell id="V5m3Qxr6WHMaZFeodgsR-83" value="BUF" style="rounded=0;whiteSpace=wrap;html=1;fillColor=none;" parent="1" vertex="1">
          <mxGeometry x="150" y="490" width="70" height="30" as="geometry" />
        </mxCell>
        <mxCell id="V5m3Qxr6WHMaZFeodgsR-87" value="2x16 MUX" style="shape=trapezoid;perimeter=trapezoidPerimeter;whiteSpace=wrap;html=1;fixedSize=1;rotation=-180;horizontal=0;textDirection=rtl;fillColor=none;" parent="1" vertex="1">
          <mxGeometry x="275" y="390" width="130" height="40" as="geometry" />
        </mxCell>
        <mxCell id="5Rc7OVquFbcM6eeQvWW6-9" style="edgeStyle=orthogonalEdgeStyle;rounded=0;orthogonalLoop=1;jettySize=auto;html=1;exitX=0.5;exitY=1;exitDx=0;exitDy=0;entryX=0.5;entryY=0;entryDx=0;entryDy=0;" parent="1" source="5Rc7OVquFbcM6eeQvWW6-5" target="5Rc7OVquFbcM6eeQvWW6-8" edge="1">
          <mxGeometry relative="1" as="geometry">
            <Array as="points">
              <mxPoint x="295" y="310" />
              <mxPoint x="410" y="310" />
            </Array>
          </mxGeometry>
        </mxCell>
        <mxCell id="5Rc7OVquFbcM6eeQvWW6-11" style="edgeStyle=orthogonalEdgeStyle;rounded=0;orthogonalLoop=1;jettySize=auto;html=1;exitX=0.5;exitY=1;exitDx=0;exitDy=0;entryX=0.75;entryY=1;entryDx=0;entryDy=0;" parent="1" source="5Rc7OVquFbcM6eeQvWW6-5" target="V5m3Qxr6WHMaZFeodgsR-87" edge="1">
          <mxGeometry relative="1" as="geometry">
            <Array as="points">
              <mxPoint x="295" y="310" />
              <mxPoint x="308" y="310" />
            </Array>
          </mxGeometry>
        </mxCell>
        <mxCell id="5Rc7OVquFbcM6eeQvWW6-14" style="edgeStyle=orthogonalEdgeStyle;rounded=0;orthogonalLoop=1;jettySize=auto;html=1;exitX=0.5;exitY=0;exitDx=0;exitDy=0;startArrow=classic;startFill=1;endArrow=none;endFill=0;" parent="1" source="5Rc7OVquFbcM6eeQvWW6-5" edge="1">
          <mxGeometry relative="1" as="geometry">
            <mxPoint x="295.28571428571433" y="250" as="targetPoint" />
          </mxGeometry>
        </mxCell>
        <mxCell id="5Rc7OVquFbcM6eeQvWW6-5" value="&lt;div&gt;ADR2&lt;/div&gt;" style="rounded=0;whiteSpace=wrap;html=1;fillColor=none;" parent="1" vertex="1">
          <mxGeometry x="260" y="270" width="70" height="30" as="geometry" />
        </mxCell>
        <mxCell id="5Rc7OVquFbcM6eeQvWW6-10" style="edgeStyle=orthogonalEdgeStyle;rounded=0;orthogonalLoop=1;jettySize=auto;html=1;exitX=0.5;exitY=1;exitDx=0;exitDy=0;entryX=0.5;entryY=0;entryDx=0;entryDy=0;" parent="1" source="5Rc7OVquFbcM6eeQvWW6-6" target="5Rc7OVquFbcM6eeQvWW6-8" edge="1">
          <mxGeometry relative="1" as="geometry">
            <Array as="points">
              <mxPoint x="375" y="310" />
              <mxPoint x="410" y="310" />
            </Array>
          </mxGeometry>
        </mxCell>
        <mxCell id="5Rc7OVquFbcM6eeQvWW6-12" style="edgeStyle=orthogonalEdgeStyle;rounded=0;orthogonalLoop=1;jettySize=auto;html=1;exitX=0.5;exitY=1;exitDx=0;exitDy=0;entryX=0.75;entryY=1;entryDx=0;entryDy=0;" parent="1" source="5Rc7OVquFbcM6eeQvWW6-6" target="V5m3Qxr6WHMaZFeodgsR-87" edge="1">
          <mxGeometry relative="1" as="geometry">
            <mxPoint x="310" y="390" as="targetPoint" />
            <Array as="points">
              <mxPoint x="375" y="310" />
              <mxPoint x="308" y="310" />
            </Array>
          </mxGeometry>
        </mxCell>
        <mxCell id="5Rc7OVquFbcM6eeQvWW6-15" style="edgeStyle=orthogonalEdgeStyle;rounded=0;orthogonalLoop=1;jettySize=auto;html=1;exitX=0.5;exitY=0;exitDx=0;exitDy=0;startArrow=classic;startFill=1;endArrow=none;endFill=0;" parent="1" source="5Rc7OVquFbcM6eeQvWW6-6" edge="1">
          <mxGeometry relative="1" as="geometry">
            <mxPoint x="375.28571428571433" y="250" as="targetPoint" />
          </mxGeometry>
        </mxCell>
        <mxCell id="5Rc7OVquFbcM6eeQvWW6-6" value="ADR3" style="rounded=0;whiteSpace=wrap;html=1;fillColor=none;" parent="1" vertex="1">
          <mxGeometry x="340" y="270" width="70" height="30" as="geometry" />
        </mxCell>
        <mxCell id="5Rc7OVquFbcM6eeQvWW6-7" style="edgeStyle=orthogonalEdgeStyle;rounded=0;orthogonalLoop=1;jettySize=auto;html=1;exitX=0.5;exitY=0;exitDx=0;exitDy=0;entryX=0.5;entryY=0;entryDx=0;entryDy=0;entryPerimeter=0;" parent="1" source="V5m3Qxr6WHMaZFeodgsR-87" target="V5m3Qxr6WHMaZFeodgsR-46" edge="1">
          <mxGeometry relative="1" as="geometry" />
        </mxCell>
        <mxCell id="5Rc7OVquFbcM6eeQvWW6-13" style="edgeStyle=orthogonalEdgeStyle;rounded=0;orthogonalLoop=1;jettySize=auto;html=1;exitX=0.5;exitY=1;exitDx=0;exitDy=0;entryX=0.25;entryY=1;entryDx=0;entryDy=0;" parent="1" source="5Rc7OVquFbcM6eeQvWW6-8" target="V5m3Qxr6WHMaZFeodgsR-87" edge="1">
          <mxGeometry relative="1" as="geometry">
            <Array as="points">
              <mxPoint x="410" y="370" />
              <mxPoint x="373" y="370" />
            </Array>
          </mxGeometry>
        </mxCell>
        <mxCell id="5Rc7OVquFbcM6eeQvWW6-8" value="&lt;div&gt;PC&lt;/div&gt;" style="rounded=0;whiteSpace=wrap;html=1;fillColor=none;" parent="1" vertex="1">
          <mxGeometry x="340" y="330" width="140" height="30" as="geometry" />
        </mxCell>
        <mxCell id="5Rc7OVquFbcM6eeQvWW6-22" style="edgeStyle=orthogonalEdgeStyle;rounded=0;orthogonalLoop=1;jettySize=auto;html=1;exitX=0;exitY=0.5;exitDx=0;exitDy=0;" parent="1" source="5Rc7OVquFbcM6eeQvWW6-16" edge="1">
          <mxGeometry relative="1" as="geometry">
            <mxPoint x="250" y="165" as="targetPoint" />
          </mxGeometry>
        </mxCell>
        <mxCell id="5Rc7OVquFbcM6eeQvWW6-16" value="INP" style="rounded=0;whiteSpace=wrap;html=1;fillColor=none;" parent="1" vertex="1">
          <mxGeometry x="275" y="150" width="70" height="30" as="geometry" />
        </mxCell>
        <mxCell id="5Rc7OVquFbcM6eeQvWW6-20" style="edgeStyle=orthogonalEdgeStyle;rounded=0;orthogonalLoop=1;jettySize=auto;html=1;exitX=0.5;exitY=1;exitDx=0;exitDy=0;" parent="1" source="5Rc7OVquFbcM6eeQvWW6-17" edge="1">
          <mxGeometry relative="1" as="geometry">
            <mxPoint x="310" y="250" as="targetPoint" />
          </mxGeometry>
        </mxCell>
        <mxCell id="5Rc7OVquFbcM6eeQvWW6-17" value="INP_FLAG" style="rounded=0;whiteSpace=wrap;html=1;fillColor=none;" parent="1" vertex="1">
          <mxGeometry x="275" y="200" width="70" height="30" as="geometry" />
        </mxCell>
        <mxCell id="5Rc7OVquFbcM6eeQvWW6-23" style="edgeStyle=orthogonalEdgeStyle;rounded=0;orthogonalLoop=1;jettySize=auto;html=1;exitX=0.5;exitY=1;exitDx=0;exitDy=0;startArrow=classic;startFill=1;endArrow=none;endFill=0;" parent="1" source="5Rc7OVquFbcM6eeQvWW6-18" edge="1">
          <mxGeometry relative="1" as="geometry">
            <mxPoint x="395" y="250" as="targetPoint" />
          </mxGeometry>
        </mxCell>
        <mxCell id="5Rc7OVquFbcM6eeQvWW6-25" style="edgeStyle=orthogonalEdgeStyle;rounded=0;orthogonalLoop=1;jettySize=auto;html=1;exitX=1;exitY=0.5;exitDx=0;exitDy=0;entryX=0;entryY=0.5;entryDx=0;entryDy=0;" parent="1" source="5Rc7OVquFbcM6eeQvWW6-18" target="5Rc7OVquFbcM6eeQvWW6-19" edge="1">
          <mxGeometry relative="1" as="geometry" />
        </mxCell>
        <mxCell id="5Rc7OVquFbcM6eeQvWW6-18" value="OUT" style="rounded=0;whiteSpace=wrap;html=1;fillColor=none;" parent="1" vertex="1">
          <mxGeometry x="360" y="200" width="70" height="30" as="geometry" />
        </mxCell>
        <mxCell id="5Rc7OVquFbcM6eeQvWW6-24" style="edgeStyle=orthogonalEdgeStyle;rounded=0;orthogonalLoop=1;jettySize=auto;html=1;exitX=0.5;exitY=1;exitDx=0;exitDy=0;" parent="1" source="5Rc7OVquFbcM6eeQvWW6-19" edge="1">
          <mxGeometry relative="1" as="geometry">
            <mxPoint x="485" y="250" as="targetPoint" />
          </mxGeometry>
        </mxCell>
        <mxCell id="5Rc7OVquFbcM6eeQvWW6-19" value="INP_FLAG" style="rounded=0;whiteSpace=wrap;html=1;fillColor=none;" parent="1" vertex="1">
          <mxGeometry x="450" y="200" width="70" height="30" as="geometry" />
        </mxCell>
        <mxCell id="5Rc7OVquFbcM6eeQvWW6-21" style="edgeStyle=orthogonalEdgeStyle;rounded=0;orthogonalLoop=1;jettySize=auto;html=1;exitX=0.5;exitY=1;exitDx=0;exitDy=0;entryX=0.5;entryY=0;entryDx=0;entryDy=0;" parent="1" source="5Rc7OVquFbcM6eeQvWW6-16" target="5Rc7OVquFbcM6eeQvWW6-17" edge="1">
          <mxGeometry relative="1" as="geometry" />
        </mxCell>
        <mxCell id="5Rc7OVquFbcM6eeQvWW6-27" style="edgeStyle=orthogonalEdgeStyle;rounded=0;orthogonalLoop=1;jettySize=auto;html=1;exitX=0;exitY=0.5;exitDx=0;exitDy=0;entryX=0;entryY=0.5;entryDx=0;entryDy=0;" parent="1" source="5Rc7OVquFbcM6eeQvWW6-26" target="V5m3Qxr6WHMaZFeodgsR-87" edge="1">
          <mxGeometry relative="1" as="geometry" />
        </mxCell>
        <mxCell id="5Rc7OVquFbcM6eeQvWW6-26" value="SEL" style="rounded=0;whiteSpace=wrap;html=1;fillColor=none;" parent="1" vertex="1">
          <mxGeometry x="430" y="395" width="70" height="30" as="geometry" />
        </mxCell>
      </root>
    </mxGraphModel>
  </diagram>
</mxfile>
